<?xml version="1.0" encoding="UTF-8"?>
<svg id="Ebene_1" xmlns="http://www.w3.org/2000/svg" version="1.1" viewBox="0 0 463.3 207">
  <!-- Generator: Adobe Illustrator 29.1.0, SVG Export Plug-In . SVG Version: 2.1.0 Build 142)  -->
  <defs>
    <style>
      .st0 {
        fill: #4d61aa;
      }
    </style>
  </defs>
  <path class="st0" d="M54.3,149.5c-26.4,0-48-21.5-48-48s21.5-48,48-48,25.4,4.3,33.8,12.3c1.5,1.5,2.4,3.4,2.4,5.5,0,2.1-.7,4.1-2.2,5.6-1.5,1.6-3.5,2.4-5.6,2.4s-4-.8-5.4-2.2c-5.5-5.1-13.2-7.7-23-7.7-16.8,0-31.6,15-31.6,32s14.5,32,31.6,32,25.3-8.4,28.6-22.5h-16.8c-4.2,0-7.6-3.5-7.6-7.8s3.4-7.8,7.6-7.8h29.8c1.8,0,3.3,2,3.6,3.5.2,1.1.4,2.5.4,3.3.6,13.3-3.6,25.3-11.9,33.9-8.3,8.6-19.9,13.2-33.7,13.2h0Z"/>
  <path class="st0" d="M142.1,202.7c-26.4,0-48-21.5-48-48s21.5-47.9,48-47.9,25.4,4.3,33.8,12.3c1.5,1.5,2.4,3.4,2.4,5.5,0,2.1-.7,4.1-2.2,5.6-1.5,1.6-3.5,2.4-5.6,2.4s-4-.8-5.4-2.2c-5.5-5.1-13.2-7.7-23-7.7-16.8,0-31.6,15-31.6,32s14.5,32,31.6,32,25.3-8.4,28.6-22.5h-16.8c-4.2,0-7.6-3.5-7.6-7.8s3.4-7.8,7.6-7.8h29.8c1.8,0,3.3,2,3.6,3.5.2,1.1.4,2.5.4,3.3.6,13.3-3.6,25.3-11.9,33.9-8.3,8.6-19.9,13.2-33.6,13.2h0Z"/>
  <path class="st0" d="M142.1,100.2c-26.4,0-48-21.5-48-48S115.7,4.3,142.1,4.3s25.4,4.3,33.8,12.3c1.5,1.5,2.4,3.4,2.4,5.5,0,2.1-.7,4.1-2.2,5.6-1.5,1.6-3.5,2.4-5.6,2.4s-4-.8-5.4-2.2c-5.5-5.1-13.2-7.7-23-7.7-16.8,0-31.6,15-31.6,32s14.5,32,31.6,32,25.3-8.4,28.6-22.5h-16.8c-4.2,0-7.6-3.5-7.6-7.8s3.4-7.8,7.6-7.8h29.8c1.8,0,3.3,2,3.6,3.5.2,1.1.4,2.5.4,3.3.6,13.3-3.6,25.3-11.9,33.9-8.3,8.6-19.9,13.2-33.6,13.2h0Z"/>
  <g>
    <path class="st0" d="M246.6,146.4l-7.4-26.2h-.1l-7.5,26.2c-.6,1.9-1.3,2.7-2.7,2.7s-2.2-.8-2.7-2.7l-8.2-32c-.1-.4-.2-.9-.2-1.2,0-1.3.9-2.3,2.4-2.3s2,.7,2.4,2.1l6.5,26.6h.1l7.3-26.4c.4-1.6,1.3-2.4,2.5-2.4s2,.8,2.5,2.4l7.5,26.4h.1l6.2-26.7c.3-1.4,1.2-2.1,2.4-2.1s2.4,1,2.4,2.3,0,.7-.2,1.2l-8.2,32c-.5,1.9-1.3,2.7-2.7,2.7s-2.1-.8-2.7-2.7Z"/>
    <path class="st0" d="M261.7,142.2c-.6-1.7-.9-3.5-.9-6.7s.3-5,.8-6.7c1.5-4.6,5.3-7.1,10.3-7.1s9,2.5,10.4,7.1c.6,1.8.9,3.8.9,6.4s-.7,1.8-1.8,1.8h-15.5c-.2,0-.3.1-.3.3,0,1.3.1,2.2.4,3.2,1,3,3.4,4.6,6.7,4.6s4.4-.8,6.4-2.3c.6-.4,1-.7,1.6-.7,1.1,0,1.9.8,1.9,1.9s-.3,1.2-.7,1.7c-2.3,2.1-5.4,3.6-9.5,3.6s-9.2-2.5-10.7-7.2ZM278.2,133.2c.2,0,.3-.1.3-.3,0-1.2-.1-2.2-.4-3-.9-2.7-3.1-4.1-6.1-4.1s-5.2,1.5-6.1,4.1c-.3.8-.4,1.8-.4,3s.1.3.3.3h12.3Z"/>
    <path class="st0" d="M304.1,125.2v-.7c0-1.5,1-2.5,2.3-2.5s2.3.9,2.3,2.5v22.9c0,7.9-4.2,11.9-11.5,11.9s-6.8-1.4-8.4-3.1c-.4-.4-.7-1-.7-1.5,0-1.2.9-2.2,2.1-2.2s1.3.3,1.9.7c1.5,1.1,3.3,1.8,5.2,1.8,4.3,0,6.7-2.1,6.7-7.2v-2.9h0c-1.3,2.2-3.5,3.5-7.4,3.5s-7.6-2.4-8.9-6.6c-.6-1.9-.9-3.9-.9-6.8s.3-4.9.9-6.8c1.3-4.1,4.5-6.6,8.9-6.6s6.1,1.5,7.4,3.5h0ZM303.5,140c.4-1.3.6-2.8.6-5s-.2-3.6-.6-4.9c-.9-2.8-2.8-4.1-5.6-4.1s-4.7,1.4-5.6,4.1c-.4,1.3-.6,2.8-.6,4.9s.2,3.7.6,5c.9,2.8,2.8,4.1,5.6,4.1s4.7-1.4,5.6-4.1Z"/>
    <path class="st0" d="M336.7,146.7l-5.5-17.4h-.1l-5.5,17.4c-.6,1.7-1.4,2.4-2.8,2.4s-2.2-.7-2.8-2.4l-7-21.4c-.1-.3-.2-.7-.2-1,0-1.3.9-2.2,2.3-2.2s1.9.7,2.3,2l5.6,18h.1l5.5-17.7c.5-1.6,1.3-2.3,2.5-2.3s2,.7,2.5,2.3l5.6,17.7h.1l5.5-18c.4-1.3,1.1-2,2.3-2s2.2.9,2.2,2.2,0,.7-.2,1l-7,21.4c-.6,1.7-1.4,2.4-2.7,2.4s-2.3-.7-2.8-2.4Z"/>
    <path class="st0" d="M352.8,142.2c-.6-1.7-.9-3.5-.9-6.7s.3-5,.8-6.7c1.5-4.6,5.3-7.1,10.3-7.1s9,2.5,10.4,7.1c.6,1.8.9,3.8.9,6.4s-.7,1.8-1.8,1.8h-15.5c-.2,0-.3.1-.3.3,0,1.3.1,2.2.4,3.2,1,3,3.4,4.6,6.7,4.6s4.4-.8,6.4-2.3c.6-.4,1-.7,1.6-.7,1.1,0,1.9.8,1.9,1.9s-.3,1.2-.7,1.7c-2.3,2.1-5.4,3.6-9.5,3.6s-9.2-2.5-10.7-7.2ZM369.2,133.2c.2,0,.3-.1.3-.3,0-1.2-.1-2.2-.4-3-.9-2.7-3.1-4.1-6.1-4.1s-5.2,1.5-6.1,4.1c-.3.8-.4,1.8-.4,3s.1.3.3.3h12.3Z"/>
    <path class="st0" d="M378.3,114c0-1.7,1.4-3,3-3s3,1.3,3,3-1.4,3-3,3-3-1.4-3-3ZM379,124.5c0-1.5,1-2.5,2.3-2.5s2.3.9,2.3,2.5v22c0,1.5-1,2.5-2.3,2.5s-2.3-.9-2.3-2.5v-22Z"/>
    <path class="st0" d="M389,146.4c-.7-.5-1.1-1.2-1.1-1.9,0-1.1.9-2.1,2.2-2.1s.9.1,1.5.5c2.2,1.3,4.4,2.3,7.4,2.3s5.8-1.7,5.8-4-1-3.3-5.2-3.8l-2.8-.3c-5.2-.6-7.9-3.2-7.9-7.5s3.6-8.1,9.8-8.1,5.9.8,7.9,1.9c.9.5,1.4,1.1,1.4,1.9s-.9,2-2,2-.9-.1-1.7-.4c-1.8-.8-3.8-1.4-5.9-1.4-3.3,0-5,1.5-5,3.6s1.2,3.2,5.2,3.6l2.8.3c5.5.6,8,3.2,8,7.5s-3.8,8.6-10.8,8.6-7.4-1.4-9.6-2.9Z"/>
    <path class="st0" d="M413.8,142.2c-.6-1.7-.9-3.5-.9-6.7s.3-5,.8-6.7c1.5-4.6,5.3-7.1,10.3-7.1s9,2.5,10.4,7.1c.6,1.8.9,3.8.9,6.4s-.7,1.8-1.8,1.8h-15.5c-.2,0-.3.1-.3.3,0,1.3.1,2.2.4,3.2,1,3,3.4,4.6,6.7,4.6s4.4-.8,6.4-2.3c.6-.4,1.1-.7,1.6-.7,1.1,0,1.9.8,1.9,1.9s-.3,1.2-.7,1.7c-2.3,2.1-5.4,3.6-9.5,3.6s-9.2-2.5-10.7-7.2ZM430.3,133.2c.2,0,.3-.1.3-.3,0-1.2-.1-2.2-.4-3-.9-2.7-3.1-4.1-6.1-4.1s-5.2,1.5-6.1,4.1c-.3.8-.4,1.8-.4,3s.1.3.3.3h12.3Z"/>
    <path class="st0" d="M440.2,146.6v-22c0-1.5,1-2.5,2.3-2.5s2.3.9,2.3,2.5v1.2h0c1.1-2.4,3.5-4,6.8-4s3,.4,3.9.9c.9.5,1.3,1.2,1.3,2,0,1.3-.9,2.3-2.3,2.3s-.8-.1-1.2-.3c-1-.4-1.9-.7-3-.7-4,0-5.6,3.3-5.6,7.7v12.8c0,1.5-1,2.5-2.3,2.5s-2.3-.9-2.3-2.5Z"/>
  </g>
</svg>